<?xml version="1.0" encoding="UTF-8"?>
<svg width="203px" height="55px" viewBox="0 0 203 55" version="1.1" xmlns="http://www.w3.org/2000/svg" xmlns:xlink="http://www.w3.org/1999/xlink">
    <title>logo copy 8</title>
    <desc>Created with Sketch.</desc>
    <defs>
        <linearGradient x1="100%" y1="50%" x2="1.94409321%" y2="50%" id="linearGradient-1">
            <stop stop-color="#E02C2C" offset="0%"></stop>
            <stop stop-color="#BB0000" offset="100%"></stop>
        </linearGradient>
    </defs>
    <g id="aproved" stroke="none" stroke-width="1" fill="none" fill-rule="evenodd">
        <g id="montserrat-red" transform="translate(-181.000000, -57.000000)">
            <g id="Group-8" transform="translate(-233.000000, -475.000000)">
                <g id="logo-copy-8" transform="translate(414.000000, 532.000000)">
                    <path d="M3.40799755,40.1145145 C8.78413185,38.8274109 14.5877935,39.3383446 19.8503366,41.7923088 C25.2156969,44.2942174 29.4063503,48.5548215 31.8692401,53.730883 C26.5782786,54.6529853 20.9555856,54.0197986 15.7115039,51.5744431 C10.29207,49.0473195 6.09531353,44.9664004 3.40799755,40.1145145 Z M0.0191735871,27.9788954 C-0.137287334,23.8379436 0.66061935,19.6019166 2.53051621,15.5919098 C7.94661627,3.97704575 20.5962065,-1.96725354 32.6648814,0.58491764 L0.0191735872,27.9788954 Z M43.1796912,5.28590034 C53.4139518,12.7807509 57.2916347,26.6548171 51.748299,38.5425389 C49.7458825,42.836735 46.754723,46.3558239 43.1697316,48.9569947 L43.1796902,5.285881 Z M12.9814032,31.7486683 C12.3785183,31.743125 12.1320941,30.9688614 12.6039215,30.5626228 L32.4171043,13.5036765 C32.848516,13.1322356 33.4858937,13.4294557 33.4786513,13.998694 L33.1458801,40.15391 C33.1379567,40.7766812 32.3860205,41.0854847 31.9944082,40.626794 C29.6530761,37.8844203 26.7634078,35.672908 23.4466564,34.1262814 C20.1230062,32.5764378 16.5762928,31.7817222 12.9814032,31.7486683 Z" id="Combined-Shape" fill="url(#linearGradient-1)" fill-rule="nonzero"></path>
                    <g id="Group-4" transform="translate(136.500000, 27.000000) rotate(-360.000000) translate(-136.500000, -27.000000) translate(70.000000, 8.000000)" fill="#FFFFFF">
                        <g id="Group-6">
                            <path d="M0,36.9514306 L0.571829861,36.5335945 C0.907303379,37.0027438 1.31139648,37.3032926 1.89085074,37.3032926 C2.40930981,37.3032926 2.76003213,37.0393961 2.76003213,36.6288905 C2.76003213,36.284359 2.54654898,36.1377498 2.02046551,35.9031752 L1.46388444,35.6539396 C0.731942222,35.3313995 0.28972713,34.9575461 0.28972713,34.3124659 C0.28972713,33.5207764 1.00642056,33.000314 1.87560194,33.000314 C2.58467097,33.000314 3.18699842,33.3448455 3.49959875,33.8653079 L2.93539329,34.283144 C2.66853935,33.9019602 2.30256824,33.6967074 1.87560194,33.6967074 C1.44863565,33.6967074 1.11316213,33.9019602 1.11316213,34.283144 C1.14365972,34.6643278 1.31902088,34.7303019 1.81460676,34.9722071 L2.37881222,35.2214426 C3.19462282,35.580635 3.58346713,35.9618188 3.58346713,36.5995686 C3.58346713,37.4425713 2.8667737,37.999686 1.89847514,37.999686 C1.07504014,37.999686 0.388844305,37.6038413 0,36.9514306 Z M6.2901284,35.5 C6.26725521,34.1145435 7.49478331,32.9783226 8.92817016,33.000314 C10.3539326,32.9783226 11.6043339,34.1145435 11.5738363,35.5 C11.6043339,36.8854565 10.3539326,38.0216774 8.92817016,37.999686 C7.48715891,38.0216774 6.25963081,36.8854565 6.2901284,35.5 Z M10.7427769,35.4926695 C10.7427769,34.4810664 9.96508831,33.7113683 8.93579456,33.7113683 C7.89125201,33.7113683 7.1288122,34.4737359 7.1288122,35.4926695 C7.1288122,36.5262641 7.89125201,37.2886317 8.93579456,37.2886317 C9.96508831,37.2886317 10.7427769,36.5262641 10.7427769,35.4926695 Z M14.5168539,37.919051 L14.5168539,33.080949 L17.7495988,33.080949 L17.7495988,33.7773425 L15.3250401,33.7773425 L15.3250401,35.2214426 L17.3226325,35.2214426 L17.3226325,35.9251665 L15.3250401,35.9251665 L15.3250401,37.919051 L14.5168539,37.919051 Z M21.7066613,37.919051 L21.7066613,33.7773425 L20.0140449,33.7773425 L20.0140449,33.080949 L24.2150883,33.080949 L24.2150883,33.7773425 L22.5148475,33.7773425 L22.5148475,37.919051 L21.7066613,37.919051 Z M33.1661317,33.080949 L34.0505619,33.080949 L32.0910915,37.999686 L31.8242376,37.999686 L30.3222312,34.5690319 L28.8202247,37.999686 L28.5457464,37.999686 L26.5862761,33.080949 L27.4783307,33.080949 L28.7363563,36.3503331 L30.1773676,33.000314 L30.4594703,33.000314 L31.908106,36.3503331 L33.1661317,33.080949 Z M39.7002408,37.919051 L39.3418941,37.1127007 L37.0774479,37.1127007 L36.7191011,37.919051 L35.8575441,37.919051 L38.076244,33.000314 L38.3507223,33.000314 L40.5694222,37.919051 L39.7002408,37.919051 Z M39.052167,36.445629 L38.2134832,34.4444141 L37.367175,36.445629 L39.052167,36.445629 Z M47.4313805,37.919051 L46.5088283,37.919051 L45.0754414,36.0497843 L44.1528893,36.0497843 L44.1528893,37.919051 L43.3447031,37.919051 L43.3447031,33.080949 L45.182183,33.080949 C46.196228,33.080949 46.8900482,33.689377 46.8900482,34.5617014 C46.8900482,35.1994512 46.5240771,35.6979224 45.9217496,35.9251665 L47.4313805,37.919051 Z M44.1528893,33.770012 L44.1528893,35.3607213 L45.1669342,35.3607213 C45.7235153,35.3607213 46.0589888,35.0381812 46.0589888,34.5690319 C46.0589888,34.0925521 45.7235153,33.770012 45.1669342,33.770012 L44.1528893,33.770012 Z M50.1304173,37.919051 L50.1304173,33.080949 L53.4394061,33.080949 L53.4394061,33.7773425 L50.9386035,33.7773425 L50.9386035,35.0161898 L52.8218299,35.0161898 L52.8218299,35.6905919 L50.9386035,35.6905919 L50.9386035,37.2226575 L53.5308989,37.2226575 L53.5308989,37.919051 L50.1304173,37.919051 Z M60.5529695,37.919051 L60.5529695,33.080949 L62.1312199,33.080949 C63.7780899,33.080949 64.8683788,34.0632303 64.8683788,35.4926695 C64.8683788,36.9001174 63.7704655,37.919051 62.1312199,37.919051 L60.5529695,37.919051 Z M61.3611557,37.2226575 L62.1235955,37.2226575 C63.2901284,37.2226575 64.0373194,36.5042727 64.0373194,35.4926695 C64.0373194,34.4664055 63.2977528,33.7846729 62.1235955,33.7846729 L61.3611557,33.7846729 L61.3611557,37.2226575 Z M67.8037721,37.919051 L67.8037721,33.080949 L71.1127608,33.080949 L71.1127608,33.7773425 L68.6119583,33.7773425 L68.6119583,35.0161898 L70.4951846,35.0161898 L70.4951846,35.6905919 L68.6119583,35.6905919 L68.6119583,37.2226575 L71.2042536,37.2226575 L71.2042536,37.919051 L67.8037721,37.919051 Z M77.45626,33.080949 L78.3635634,33.080949 L76.1448636,37.999686 L75.8703852,37.999686 L73.6516854,33.080949 L74.5589887,33.080949 L76.0076244,36.445629 L77.45626,33.080949 Z M81.1388443,37.919051 L81.1388443,33.080949 L84.4478331,33.080949 L84.4478331,33.7773425 L81.9470305,33.7773425 L81.9470305,35.0161898 L83.8302568,35.0161898 L83.8302568,35.6905919 L81.9470305,35.6905919 L81.9470305,37.2226575 L84.5393258,37.2226575 L84.5393258,37.919051 L81.1388443,37.919051 Z M87.4518459,37.919051 L87.4518459,33.080949 L88.2600321,33.080949 L88.2600321,37.2226575 L90.5626003,37.2226575 L90.5626003,37.919051 L87.4518459,37.919051 Z M92.9337881,35.5 C92.9109149,34.1145435 94.138443,32.9783226 95.5718298,33.000314 C96.9975923,32.9783226 98.2479936,34.1145435 98.217496,35.5 C98.2479936,36.8854565 96.9975923,38.0216774 95.5718298,37.999686 C94.1308186,38.0216774 92.9032905,36.8854565 92.9337881,35.5 Z M97.3864366,35.4926695 C97.3864366,34.4810664 96.608748,33.7113683 95.5794542,33.7113683 C94.5349117,33.7113683 93.7724719,34.4737359 93.7724719,35.4926695 C93.7724719,36.5262641 94.5349117,37.2886317 95.5794542,37.2886317 C96.608748,37.2886317 97.3864366,36.5262641 97.3864366,35.4926695 Z M101.160514,37.919051 L101.160514,33.080949 L102.997994,33.080949 C104.012039,33.080949 104.705859,33.689377 104.705859,34.5617014 C104.705859,35.4266954 104.012039,36.0497843 102.997994,36.0497843 L101.9687,36.0497843 L101.9687,37.919051 L101.160514,37.919051 Z M101.9687,35.3607213 L102.982745,35.3607213 C103.554575,35.3607213 103.874799,35.0455116 103.874799,34.5690319 C103.874799,34.0925521 103.554575,33.770012 102.982745,33.770012 L101.9687,33.770012 L101.9687,35.3607213 Z M112.086276,33.000314 L112.360754,33.000314 L112.360754,37.919051 L111.552568,37.919051 L111.552568,34.8842416 L110.111557,36.7021951 L109.837079,36.7021951 L108.388443,34.8769111 L108.388443,37.919051 L107.580257,37.919051 L107.580257,33.000314 L107.86236,33.000314 L109.974318,35.7052528 L112.086276,33.000314 Z M115.601124,37.919051 L115.601124,33.080949 L118.910112,33.080949 L118.910112,33.7773425 L116.40931,33.7773425 L116.40931,35.0161898 L118.292536,35.0161898 L118.292536,35.6905919 L116.40931,35.6905919 L116.40931,37.2226575 L119.001605,37.2226575 L119.001605,37.919051 L115.601124,37.919051 Z M125.253612,33.080949 L126.061798,33.080949 L126.061798,37.999686 L125.787319,37.999686 L122.722311,34.6423365 L122.722311,37.919051 L121.914125,37.919051 L121.914125,33.000314 L122.196228,33.000314 L125.253612,36.3430026 L125.253612,33.080949 Z M130.491573,37.919051 L130.491573,33.7773425 L128.798957,33.7773425 L128.798957,33.080949 L133,33.080949 L133,33.7773425 L131.299759,33.7773425 L131.299759,37.919051 L130.491573,37.919051 Z" id="Software-Development-Copy"></path>
                            <path d="M29,24 L29,-2.4492936e-16 L33.7060834,-2.4492936e-16 L33.7060834,24 L29,24 Z M38.5167464,12 C38.4121668,5.36987083 44.0943267,-0.137696792 50.7177033,0.00262340227 C57.34108,-0.137696792 63.0929597,5.36987083 62.98838,12 C63.0929597,18.6301292 57.34108,24.1376968 50.7177033,23.9973766 C44.0943267,24.1376968 38.4121668,18.6301292 38.5167464,12 Z M58.1428571,12 C58.1428571,7.61499393 54.9706083,4.38762947 50.7525632,4.38762947 C46.4996582,4.38762947 43.3622693,7.54483384 43.3622693,12 C43.3622693,16.4551662 46.4996582,19.6123705 50.7525632,19.6123705 C54.9706083,19.6123705 58.1428571,16.4551662 58.1428571,12 Z M82.7190704,2.8038217e-13 L87.4251538,-2.31171318e-13 L87.4251538,23.9973766 L85.8564593,23.9973766 L72.5399863,9.6847168 L72.5399863,24 L67.8339029,24 L67.8339029,0.00262340227 L69.3677375,0.00262340227 L82.7190704,14.2451231 L82.7190704,2.8038217e-13 Z M112.071087,-2.4492936e-16 L104.157895,14.0320194 L104.157895,24.152832 L99.4518113,24.152832 L99.4518113,14.0670995 L91.5037594,-2.4492936e-16 L96.7327409,1.71371264e-13 L101.822283,9.19097272 L106.876965,1.71371264e-13 L112.071087,-2.4492936e-16 Z M114.0581,18.8756895 L117.300068,16.4200861 C118.799043,18.489809 120.437457,19.7877708 122.947368,19.7877708 C125.004101,19.7877708 126.224197,18.8055294 126.224197,17.2269272 C126.224197,15.8588053 125.492139,15.3676847 123.295967,14.3503633 L120.820916,13.2278017 C117.300068,11.6491995 115.243336,9.64963675 115.243336,6.56259248 C115.243336,2.59854699 118.520164,0.00262340227 122.877649,0.00262340227 C126.398496,0.00262340227 129.047847,1.72154578 130.477102,4.38762947 L127.269993,6.87831291 C126.084757,5.08923044 124.620643,4.21222923 122.877649,4.21222923 C121.239234,4.21222923 120.019139,5.01907034 120.019139,6.45735233 C120.019139,7.68515403 120.751196,8.24643481 122.703349,9.12343602 L125.31784,10.2810776 C129.187286,12 131,13.9294027 131,17.051527 C131,21.2962129 127.548872,23.9973766 122.947368,23.9973766 C119.043062,23.9973766 115.835954,21.9978138 114.0581,18.8756895 Z" id="ionys"></path>
                            <path d="M14.7110764,0.206435821 L24.8983935,21.9549348 C24.9043643,21.9634356 24.9043643,21.9634356 24.9126478,21.9749604 C24.9239529,21.9906679 24.9239529,21.9906679 24.9375571,22.0101619 C25.0623067,22.1916898 24.9930682,22.4419009 24.7927694,22.5333894 L21.6521383,23.9679052 C21.5022379,24.0363738 21.324945,23.9923878 21.2243845,23.8617803 C19.1548853,21.1739243 15.9475618,19.5567687 12.4903325,19.5567687 C9.02373005,19.5567687 5.82590328,21.1654407 3.80016691,23.78764 L3.79689494,23.7946936 C3.71454989,23.9722098 3.5039862,24.0493561 3.32653505,23.9670241 L0.205302177,22.5188663 C0.0272780436,22.4362685 -0.049715517,22.2246159 0.0335966225,22.0468539 L10.2707574,0.203954938 C10.3291259,0.0794149473 10.4542442,-8.9690341e-05 10.5917261,7.5934662e-08 L14.3905699,0.00248046191 C14.5278848,0.00257011916 14.6527791,0.0820469871 14.7110764,0.206435821 Z M7.89823003,16.8514481 C9.33333774,16.2015678 10.890476,15.8617938 12.4989157,15.8617938 C14.1040167,15.8617938 15.6625931,16.2035033 17.1016039,16.8562792 C17.3422936,16.9654629 17.5839513,16.7046689 17.4716647,16.4569142 L12.7558407,6.05168757 C12.6532062,5.82522973 12.344754,5.82522735 12.2421163,6.05168361 L7.5283357,16.4520045 C7.41608261,16.6996758 7.65755372,16.960437 7.89823003,16.8514481 Z" id="Shape" fill-rule="nonzero"></path>
                        </g>
                    </g>
                </g>
            </g>
        </g>
    </g>
</svg>